<?xml version="1.0" encoding="UTF-8"?>
<svg xmlns="http://www.w3.org/2000/svg" width="447" height="83" viewBox="0 0 447 83" fill="none">
  <path d="M98.29 65C98.0733 65 97.8783 64.935 97.705 64.805C97.575 64.6317 97.51 64.4367 97.51 64.22V20.28C97.51 20.0633 97.575 19.89 97.705 19.76C97.8783 19.5867 98.0733 19.5 98.29 19.5H104.27C104.487 19.5 104.66 19.5867 104.79 19.76C104.963 19.89 105.05 20.0633 105.05 20.28V38.22C105.05 38.3933 105.093 38.5017 105.18 38.545C105.267 38.545 105.353 38.48 105.44 38.35L115.19 20.085C115.407 19.695 115.732 19.5 116.165 19.5H122.6C122.903 19.5 123.098 19.5867 123.185 19.76C123.272 19.9333 123.25 20.15 123.12 20.41L113.37 38.675C113.327 38.8483 113.305 38.9783 113.305 39.065L123.835 64.09C123.878 64.1767 123.9 64.3067 123.9 64.48C123.9 64.8267 123.683 65 123.25 65H116.815C116.338 65 116.035 64.805 115.905 64.415L108.235 45.63C108.192 45.5 108.127 45.4567 108.04 45.5C107.953 45.5 107.867 45.5433 107.78 45.63L105.18 49.985C105.093 50.1583 105.05 50.2883 105.05 50.375V64.22C105.05 64.4367 104.963 64.6317 104.79 64.805C104.66 64.935 104.487 65 104.27 65H98.29ZM144.932 20.28C144.932 20.0633 144.997 19.89 145.127 19.76C145.3 19.5867 145.495 19.5 145.712 19.5H151.692C151.908 19.5 152.082 19.5867 152.212 19.76C152.385 19.89 152.472 20.0633 152.472 20.28V64.22C152.472 64.4367 152.385 64.6317 152.212 64.805C152.082 64.935 151.908 65 151.692 65H145.712C145.495 65 145.3 64.935 145.127 64.805C144.997 64.6317 144.932 64.4367 144.932 64.22V45.825C144.932 45.6083 144.823 45.5 144.607 45.5H136.352C136.135 45.5 136.027 45.6083 136.027 45.825V64.22C136.027 64.4367 135.94 64.6317 135.767 64.805C135.637 64.935 135.463 65 135.247 65H129.267C129.05 65 128.855 64.935 128.682 64.805C128.552 64.6317 128.487 64.4367 128.487 64.22V20.28C128.487 20.0633 128.552 19.89 128.682 19.76C128.855 19.5867 129.05 19.5 129.267 19.5H135.247C135.463 19.5 135.637 19.5867 135.767 19.76C135.94 19.89 136.027 20.0633 136.027 20.28V38.61C136.027 38.8267 136.135 38.935 136.352 38.935H144.607C144.823 38.935 144.932 38.8267 144.932 38.61V20.28ZM177.923 65C177.403 65 177.121 64.7617 177.078 64.285L175.843 57.46C175.843 57.2433 175.713 57.135 175.453 57.135H165.963C165.703 57.135 165.573 57.2433 165.573 57.46L164.338 64.285C164.295 64.7617 164.013 65 163.493 65H157.578C156.971 65 156.733 64.7183 156.863 64.155L166.483 20.215C166.57 19.7383 166.851 19.5 167.328 19.5H174.218C174.695 19.5 174.976 19.7383 175.063 20.215L184.683 64.155V64.415C184.683 64.805 184.445 65 183.968 65H177.923ZM166.743 50.895C166.7 51.1117 166.808 51.22 167.068 51.22H174.283C174.543 51.22 174.651 51.1117 174.608 50.895L170.838 30.355C170.795 30.225 170.73 30.16 170.643 30.16C170.556 30.16 170.491 30.225 170.448 30.355L166.743 50.895ZM189.887 65C189.67 65 189.475 64.935 189.302 64.805C189.172 64.6317 189.107 64.4367 189.107 64.22V20.28C189.107 20.0633 189.172 19.89 189.302 19.76C189.475 19.5867 189.67 19.5 189.887 19.5H195.867C196.083 19.5 196.257 19.5867 196.387 19.76C196.56 19.89 196.647 20.0633 196.647 20.28V64.22C196.647 64.4367 196.56 64.6317 196.387 64.805C196.257 64.935 196.083 65 195.867 65H189.887ZM221.648 65C221.214 65 220.933 64.7833 220.803 64.35L215.278 45.695C215.191 45.5217 215.083 45.435 214.953 45.435H211.508C211.291 45.435 211.183 45.5433 211.183 45.76V64.22C211.183 64.4367 211.096 64.6317 210.923 64.805C210.793 64.935 210.619 65 210.403 65H204.423C204.206 65 204.011 64.935 203.838 64.805C203.708 64.6317 203.643 64.4367 203.643 64.22V20.28C203.643 20.0633 203.708 19.89 203.838 19.76C204.011 19.5867 204.206 19.5 204.423 19.5H216.643C218.939 19.5 220.954 20.0633 222.688 21.19C224.464 22.2733 225.829 23.8333 226.783 25.87C227.779 27.8633 228.278 30.16 228.278 32.76C228.278 35.4467 227.758 37.765 226.718 39.715C225.678 41.665 224.226 43.1383 222.363 44.135C222.189 44.1783 222.124 44.3083 222.168 44.525L228.538 64.09C228.581 64.1767 228.603 64.285 228.603 64.415C228.603 64.805 228.364 65 227.888 65H221.648ZM211.508 26C211.291 26 211.183 26.1083 211.183 26.325V39.26C211.183 39.4767 211.291 39.585 211.508 39.585H215.473C217.033 39.585 218.289 38.9783 219.243 37.765C220.239 36.5517 220.738 34.905 220.738 32.825C220.738 30.745 220.239 29.0983 219.243 27.885C218.289 26.6283 217.033 26 215.473 26H211.508ZM252.572 65C252.052 65 251.77 64.7617 251.727 64.285L250.492 57.46C250.492 57.2433 250.362 57.135 250.102 57.135H240.612C240.352 57.135 240.222 57.2433 240.222 57.46L238.987 64.285C238.943 64.7617 238.662 65 238.142 65H232.227C231.62 65 231.382 64.7183 231.512 64.155L241.132 20.215C241.218 19.7383 241.5 19.5 241.977 19.5H248.867C249.343 19.5 249.625 19.7383 249.712 20.215L259.332 64.155V64.415C259.332 64.805 259.093 65 258.617 65H252.572ZM241.392 50.895C241.348 51.1117 241.457 51.22 241.717 51.22H248.932C249.192 51.22 249.3 51.1117 249.257 50.895L245.487 30.355C245.443 30.225 245.378 30.16 245.292 30.16C245.205 30.16 245.14 30.225 245.097 30.355L241.392 50.895ZM280.2 20.28C280.2 20.0633 280.265 19.89 280.395 19.76C280.568 19.5867 280.763 19.5 280.98 19.5H286.96C287.177 19.5 287.35 19.5867 287.48 19.76C287.653 19.89 287.74 20.0633 287.74 20.28V64.22C287.74 64.4367 287.653 64.6317 287.48 64.805C287.35 64.935 287.177 65 286.96 65H280.98C280.763 65 280.568 64.935 280.395 64.805C280.265 64.6317 280.2 64.4367 280.2 64.22V45.825C280.2 45.6083 280.092 45.5 279.875 45.5H271.62C271.403 45.5 271.295 45.6083 271.295 45.825V64.22C271.295 64.4367 271.208 64.6317 271.035 64.805C270.905 64.935 270.732 65 270.515 65H264.535C264.318 65 264.123 64.935 263.95 64.805C263.82 64.6317 263.755 64.4367 263.755 64.22V20.28C263.755 20.0633 263.82 19.89 263.95 19.76C264.123 19.5867 264.318 19.5 264.535 19.5H270.515C270.732 19.5 270.905 19.5867 271.035 19.76C271.208 19.89 271.295 20.0633 271.295 20.28V38.61C271.295 38.8267 271.403 38.935 271.62 38.935H279.875C280.092 38.935 280.2 38.8267 280.2 38.61V20.28Z" fill="#071738"></path>
  <g clip-path="url(#clip0_609_34)">
    <path d="M2.14566 32.0598C1.90183 33.764 1.77992 35.5049 1.77992 37.2826C1.77992 57.4012 17.9942 73.7069 38 73.7069C58.0058 73.7069 74.2201 57.4012 74.2201 37.2826C74.2201 35.5049 74.0982 33.764 73.8543 32.0598C75.2441 36.0443 76 40.323 76 44.7857C76 65.8851 58.9811 83 38 83C17.0189 83 -1.11074e-06 65.8851 -1.11074e-06 44.7857C-1.11074e-06 40.323 0.755858 36.0443 2.14566 32.0598Z" fill="#58C22F"></path>
    <path d="M18.0796 59.0072C23.651 66.5839 35.0619 66.1057 33.0138 50.5111C32.5383 46.9189 29.2589 39.6855 26.333 36.878C29.7222 36.5347 33.5136 42.8118 37.7562 41.7942C41.9987 40.7766 45.8633 33.2 45.8633 33.2C45.8633 33.2 50.7886 63.9603 34.9644 69.8696C22.0051 74.7 18.0796 59.0072 18.0796 59.0072Z" fill="#FFA510"></path>
    <path d="M32.6647 36.6219C31.6772 34.8889 32.2736 32.679 33.9968 31.6859C35.7201 30.6927 37.9177 31.2925 38.9052 33.0255C39.8928 34.7585 39.2964 36.9684 37.5731 37.9615C35.8498 38.9547 33.6523 38.3549 32.6647 36.6219Z" fill="#FFA510"></path>
    <path d="M18.349 31.5966C16.7534 30.84 16.0699 28.9259 16.8222 27.3213C17.5746 25.7167 19.478 25.0293 21.0736 25.7859C22.6692 26.5425 23.3527 28.4566 22.6004 30.0612C21.848 31.6658 19.9446 32.3532 18.349 31.5966Z" fill="#58C22F"></path>
    <path d="M30.1001 72.8733C39.2923 76.4777 55.5797 58.1736 47.6798 31.0668C47.6798 31.0668 55.1652 38.2756 59.4078 37.258C63.6503 36.2405 67.5271 28.2715 72.1232 28.0018C68.4049 31.8269 67.9416 35.5294 65.0889 44.7979C62.0898 54.5201 57.3475 65.7257 50.5082 70.7646C37.2198 80.548 30.1001 72.8733 30.1001 72.8733Z" fill="#58C22F"></path>
    <path d="M54.8288 32.187C53.8413 30.454 54.4377 28.244 56.1609 27.2509C57.8842 26.2578 60.0818 26.8575 61.0693 28.5905C62.0569 30.3235 61.4605 32.5335 59.7372 33.5266C58.0139 34.5197 55.8164 33.9199 54.8288 32.187Z" fill="#58C22F"></path>
    <path d="M30.9657 53.527C26.8572 54.4098 22.8098 51.3693 23.273 42.3827C23.4437 39.1584 25.8332 32.5257 28.2227 29.8285C25.187 29.7672 22.2855 35.5907 18.4575 34.99C14.6295 34.3892 10.6795 27.965 10.6795 27.965C10.6795 27.965 8.50947 55.4641 22.9073 59.657C27.0523 60.8708 31.3924 58.6517 30.9657 53.527Z" fill="#259CDF"></path>
    <path d="M60.8463 6.43649C60.8463 6.43649 60.2611 16.3793 53.9949 19.3217C53.9949 19.3217 53.239 15.3617 56.1771 11.5979C53.7876 12.6155 52.5563 15.1533 52.4953 17.9609C52.4953 17.9609 48.5332 14.9572 52.154 10.5926C55.7748 6.22807 60.8463 6.43649 60.8463 6.43649Z" fill="#58C22F"></path>
    <path d="M15.1537 6.43649C15.1537 6.43649 15.7388 16.3793 22.0051 19.3217C22.0051 19.3217 22.761 15.3617 19.8229 11.5979C22.2124 12.6155 23.4437 15.1533 23.5046 17.9609C23.5046 17.9609 27.4668 14.9572 23.846 10.5926C20.2252 6.22807 15.1537 6.43649 15.1537 6.43649Z" fill="#259CDF"></path>
    <path d="M40.0359 0C40.0359 0 44.1688 9.04786 40.0116 14.6016C40.0116 14.6016 37.488 11.4631 38.3292 6.75524C36.6955 8.7904 36.7931 11.5979 38.0488 14.1112C38.0488 14.1112 33.1479 13.3388 34.3061 7.77282C35.4642 2.21905 40.0359 0 40.0359 0Z" fill="#FFA510"></path>
  </g>
  <defs>
    <clipPath id="clip0_609_34">
      <rect width="76" height="83" fill="white" transform="matrix(-1 0 0 1 76 0)"></rect>
    </clipPath>
  </defs>
</svg>
